<svg id="レイヤー_1" data-name="レイヤー 1" xmlns="http://www.w3.org/2000/svg" viewBox="0 0 763.88 113.39"><defs><style>.cls-1{fill:#17171a;}.cls-2{fill:#00b8be;}</style></defs><path class="cls-1" d="M67.81,32.4H89.5V94.55H104V32.4h21.58V18.93H67.81ZM33,50.15,32.66,50c-11.6-3.5-14.77-5.77-14.77-10.58,0-5.07,4.25-8.22,11.1-8.22,7.21,0,12.19,3.2,15.25,9.78l.42.92L57,35.11l-.39-.81C51.33,23.66,41.28,17.55,29,17.55,16.27,17.55,3.4,25.19,3.4,39.78,3.4,54,14.86,58.56,27.63,62.28c11.64,3.44,16.74,5.54,16.74,11.2s-4.85,8.75-13.3,8.75c-9.19,0-15.3-4-18.17-11.81l-.38-1L0,76.43l.28.75c4.4,11.91,15.51,18.74,30.46,18.74,17.08,0,28.11-8.89,28.11-22.65C58.85,58.07,45.72,54,33,50.15m141.23-32.6c-22.83,0-40.71,17.22-40.71,39.19s17.88,39.18,40.71,39.18S215,78.71,215,56.74s-17.88-39.19-40.71-39.19m0,64.68c-14.95,0-26.23-11-26.23-25.49s11.28-25.5,26.23-25.5,26.22,11,26.22,25.5S189.2,82.23,174.25,82.23M349.67,55.79l31.82-36.86H364L336.22,50.44V18.93H321.73V94.55h14.49V61.07l28.86,33.48h17.48ZM270.54,31.24c9.14,0,17.26,4.38,21.19,11.42l.46.83,12.63-7.05-.5-.84c-6.7-11.13-19.64-18-33.78-18-23.4,0-41,16.85-41,39.19s17.64,39.18,41,39.18c14.21,0,27.16-7,33.78-18.16l.5-.84L292.18,70l-.46.83c-3.81,7-11.93,11.41-21.18,11.41C254.9,82.23,244,71.75,244,56.74s10.92-25.5,26.56-25.5"/><path class="cls-2" d="M418.86,0,339.47,113.39h345L763.88,0ZM445.3,86.46a29.76,29.76,0,1,1,28.22-39.21H461.09a18.43,18.43,0,1,0,0,18.9h12.43A29.81,29.81,0,0,1,445.3,86.46m87.88-39.21a18.9,18.9,0,0,1-11.73,17.48L533.18,85h-13.1l-10.91-18.9h-10V85H487.82V28.35h26.46a18.9,18.9,0,0,1,18.9,18.9m54-7.56H558.84V51h25.51V62.36H558.84V73.71h28.34V85.05H547.5V28.35h39.68Zm81.08,45.36H656.33L643.87,46.69,631.41,85.05H619.49l-18.42-56.7H613L625.45,66.7l12.46-38.35h11.92L662.3,66.7l12.46-38.35h11.92Zm-154-45.36H499.16V54.8h15.12a7.56,7.56,0,1,0,0-15.11"/></svg>