<svg xmlns="http://www.w3.org/2000/svg" width="120.35" height="120.35" viewBox="0 0 120.35 120.35"><title>アセット 1</title><g style="opacity:0.5"><line x1="8.18" y1="0.18" x2="8.18" y2="120.18" style="fill:none;stroke:#aaa;stroke-linecap:square;stroke-miterlimit:10;stroke-width:0.25px"/><line x1="37.18" y1="0.18" x2="37.18" y2="120.18" style="fill:none;stroke:#aaa;stroke-linecap:square;stroke-miterlimit:10;stroke-width:0.25px"/><line x1="83.18" y1="0.18" x2="83.18" y2="120.18" style="fill:none;stroke:#aaa;stroke-linecap:square;stroke-miterlimit:10;stroke-width:0.25px"/><line x1="60.18" y1="0.18" x2="60.18" y2="120.18" style="fill:none;stroke:#aaa;stroke-linecap:square;stroke-miterlimit:10;stroke-width:0.25px"/><line x1="112.18" y1="0.18" x2="112.18" y2="120.18" style="fill:none;stroke:#aaa;stroke-linecap:square;stroke-miterlimit:10;stroke-width:0.25px"/><line x1="0.18" y1="8.18" x2="120.18" y2="8.18" style="fill:none;stroke:#aaa;stroke-linecap:square;stroke-miterlimit:10;stroke-width:0.25px"/><line x1="0.18" y1="60.08" x2="120.18" y2="60.08" style="fill:none;stroke:#aaa;stroke-linecap:square;stroke-miterlimit:10;stroke-width:0.25px"/><line x1="0.18" y1="37.18" x2="120.18" y2="37.18" style="fill:none;stroke:#aaa;stroke-linecap:square;stroke-miterlimit:10;stroke-width:0.25px"/><line x1="0.18" y1="82.88" x2="120.18" y2="82.88" style="fill:none;stroke:#aaa;stroke-linecap:square;stroke-miterlimit:10;stroke-width:0.25px"/><line x1="0.18" y1="112.18" x2="120.18" y2="112.18" style="fill:none;stroke:#aaa;stroke-linecap:square;stroke-miterlimit:10;stroke-width:0.25px"/><line x1="120.18" y1="0.18" x2="0.18" y2="120.18" style="fill:none;stroke:#aaa;stroke-linecap:square;stroke-miterlimit:10;stroke-width:0.25px"/><line x1="0.18" y1="0.18" x2="120.18" y2="120.18" style="fill:none;stroke:#aaa;stroke-linecap:square;stroke-miterlimit:10;stroke-width:0.25px"/><circle cx="59.88" cy="60.18" r="52" style="fill:none;stroke:#aaa;stroke-linecap:square;stroke-miterlimit:10;stroke-width:0.25px"/><circle cx="60.18" cy="60.18" r="32" style="fill:none;stroke:#aaa;stroke-linecap:square;stroke-miterlimit:10;stroke-width:0.25px"/><circle cx="60.18" cy="60.18" r="23" style="fill:none;stroke:#aaa;stroke-linecap:square;stroke-miterlimit:10;stroke-width:0.25px"/><path d="M119.93.43v119.5H.43V.43h119.5m.25-.25H.18v120h120V.18Z" style="fill:#aaa"/></g></svg>